<svg id="b31aa5bf-7c34-46be-b994-0d9ffa5c4815" data-name="Layer 1" xmlns="http://www.w3.org/2000/svg" xmlns:xlink="http://www.w3.org/1999/xlink" viewBox="0 0 500 500"><defs><clipPath id="ae90f67f-76ea-41ce-b2f4-3b426be5c575"><path d="M432.33,293.13a182.33,182.33,0,0,1-364.66,0C67.67,192.43,149.3,24.54,250,24.54S432.33,192.43,432.33,293.13Z" style="fill:none"/></clipPath></defs><path d="M250,110.79h0c74.63,0,121.59,46,129.7,54.19,7,7.09,52.63,56.57,52.63,128.15a182.33,182.33,0,0,1-364.66,0c0-77,52.94-128.74,59.12-134.41C177.51,112.18,237,110.79,250,110.79m0-10h0c-22.51,0-80.23,4.93-130,50.56-3,2.74-18.63,17.66-33.69,42.68-19,31.61-28.67,65-28.67,99.1a192.33,192.33,0,1,0,384.66,0c0-31.86-8.38-63.18-24.93-93.1-13-23.46-26.69-38.14-30.58-42.08a197.75,197.75,0,0,0-42.09-31.84c-29.63-16.8-61.5-25.32-94.73-25.32Z" style="fill:#1b9efb"/><g style="clip-path:url(#ae90f67f-76ea-41ce-b2f4-3b426be5c575)"><image width="768" height="768" transform="matrix(-0.62, 0, 0, 0.62, 511.32, 6.21)" xlink:href="Ajit_Sharma.png"/></g></svg>